<svg xmlns="http://www.w3.org/2000/svg" version="1.1" width="600px" height="600px" viewBox="0 0 200 200" style="overflow:hidden!important;"><defs id="SvgjsDefs3079"><radialGradient id="SvgjsRadialGradient3140" cx="100" cy="113" r="40" gradientUnits="userSpaceOnUse" class="svga-on-canvas-facehighlight-gradient-single-0"><stop id="SvgjsStop3141" stop-opacity="0.5" stop-color="#f7c7b3" offset="0" ></stop><stop id="SvgjsStop3142" stop-opacity="0" stop-color="#e8aa91" offset="0.9" ></stop></radialGradient><radialGradient id="SvgjsRadialGradient3144" cx="100" cy="57" r="36" gradientUnits="userSpaceOnUse" class="svga-on-canvas-facehighlight-gradient-single-1"><stop id="SvgjsStop3145" stop-opacity="0.5" stop-color="#f7c7b3" offset="0" ></stop><stop id="SvgjsStop3146" stop-opacity="0" stop-color="#e8aa91" offset="0.9" ></stop></radialGradient><radialGradient id="SvgjsRadialGradient3229" cx="-565.337" cy="-492.691" r="84.644" gradientTransform="matrix(0.0991 8.856325e-004 -0.0011 0.0991 130.3774 136.3533)" gradientUnits="userSpaceOnUse" class="svga-on-canvas-eyesiris-gradient-left-2"><stop id="SvgjsStop3230" stop-opacity="0.8" stop-color="#ffffff" offset="0" ></stop><stop id="SvgjsStop3231" stop-opacity="0" stop-color="#ffffff" offset="1" ></stop></radialGradient><linearGradient id="SvgjsLinearGradient3235" x1="122.283" y1="93.047" x2="123.61" y2="91.466" gradientTransform="matrix(1 0 0 1 -52 0)" gradientUnits="userSpaceOnUse" class="svga-on-canvas-eyesiris-gradient-left-5"><stop id="SvgjsStop3236" stop-opacity="1" stop-color="#ffffff" offset="0" ></stop><stop id="SvgjsStop3237" stop-opacity="0" stop-color="#ffffff" offset="1" ></stop></linearGradient><linearGradient id="SvgjsLinearGradient3239" x1="127" y1="85" x2="125" y2="87" gradientTransform="matrix(1 0 0 1 -50 0)" gradientUnits="userSpaceOnUse" class="svga-on-canvas-eyesiris-gradient-left-6"><stop id="SvgjsStop3240" stop-opacity="1" stop-color="#ffffff" offset="0" ></stop><stop id="SvgjsStop3241" stop-opacity="0" stop-color="#ffffff" offset="1" ></stop></linearGradient><linearGradient id="SvgjsLinearGradient3243" x1="130" y1="81" x2="126" y2="85" gradientTransform="matrix(1 0 0 1 -50 0)" gradientUnits="userSpaceOnUse" class="svga-on-canvas-eyesiris-gradient-left-7"><stop id="SvgjsStop3244" stop-opacity="1" stop-color="#ffffff" offset="0" ></stop><stop id="SvgjsStop3245" stop-opacity="0" stop-color="#ffffff" offset="1" ></stop></linearGradient><radialGradient id="SvgjsRadialGradient3252" cx="-584.778" cy="-487.329" r="84.644" gradientTransform="matrix(0.0991 8.856325e-004 -0.0011 0.0991 182.3104 135.839)" gradientUnits="userSpaceOnUse" class="svga-on-canvas-eyesiris-gradient-right-2"><stop id="SvgjsStop3253" stop-opacity="0.8" stop-color="#ffffff" offset="0" ></stop><stop id="SvgjsStop3254" stop-opacity="0" stop-color="#ffffff" offset="1" ></stop></radialGradient><linearGradient id="SvgjsLinearGradient3258" x1="120.284" y1="93.047" x2="121.611" y2="91.467" gradientUnits="userSpaceOnUse" class="svga-on-canvas-eyesiris-gradient-right-5"><stop id="SvgjsStop3259" stop-opacity="1" stop-color="#ffffff" offset="0" ></stop><stop id="SvgjsStop3260" stop-opacity="0" stop-color="#ffffff" offset="1" ></stop></linearGradient><linearGradient id="SvgjsLinearGradient3262" x1="127" y1="85" x2="125" y2="87" gradientUnits="userSpaceOnUse" class="svga-on-canvas-eyesiris-gradient-right-6"><stop id="SvgjsStop3263" stop-opacity="1" stop-color="#ffffff" offset="0" ></stop><stop id="SvgjsStop3264" stop-opacity="0" stop-color="#ffffff" offset="1" ></stop></linearGradient><linearGradient id="SvgjsLinearGradient3266" x1="130" y1="81" x2="126" y2="85" gradientUnits="userSpaceOnUse" class="svga-on-canvas-eyesiris-gradient-right-7"><stop id="SvgjsStop3267" stop-opacity="1" stop-color="#ffffff" offset="0" ></stop><stop id="SvgjsStop3268" stop-opacity="0" stop-color="#ffffff" offset="1" ></stop></linearGradient><linearGradient id="SvgjsLinearGradient3311" x1="99.98" y1="171.27" x2="99.98" y2="136.351" gradientUnits="userSpaceOnUse" class="svga-on-canvas-chinshadow-gradient-single-0"><stop id="SvgjsStop3312" stop-opacity="0.8" stop-color="#d98f72" offset="0" ></stop><stop id="SvgjsStop3313" stop-opacity="1" stop-color="#ba613c" offset="0.7" ></stop></linearGradient><radialGradient id="SvgjsRadialGradient4542" cx="129.05" cy="85.956" r="15.117" gradientTransform="matrix(-0.9945 0.1042 0.1042 0.9945 192.8274 -12.4637)" gradientUnits="userSpaceOnUse" class="svga-on-canvas-eyesback-gradient-left-0"><stop id="SvgjsStop4543" stop-opacity="1" stop-color="#ffffff" offset="0" ></stop><stop id="SvgjsStop4544" stop-opacity="1" stop-color="#fcfdfd" offset="0.316" ></stop><stop id="SvgjsStop4545" stop-opacity="1" stop-color="#f4f7f8" offset="0.505" ></stop><stop id="SvgjsStop4546" stop-opacity="1" stop-color="#e5ecef" offset="0.661" ></stop><stop id="SvgjsStop4547" stop-opacity="1" stop-color="#d8e2e7" offset="0.76" ></stop></radialGradient><radialGradient id="SvgjsRadialGradient4549" cx="129.049" cy="85.956" r="15.117" gradientTransform="matrix(0.9945 0.1042 -0.1042 0.9945 7.1735 -12.4637)" gradientUnits="userSpaceOnUse" class="svga-on-canvas-eyesback-gradient-right-0"><stop id="SvgjsStop4550" stop-opacity="1" stop-color="#ffffff" offset="0" ></stop><stop id="SvgjsStop4551" stop-opacity="1" stop-color="#fcfdfd" offset="0.316" ></stop><stop id="SvgjsStop4552" stop-opacity="1" stop-color="#f4f7f8" offset="0.505" ></stop><stop id="SvgjsStop4553" stop-opacity="1" stop-color="#e5ecef" offset="0.661" ></stop><stop id="SvgjsStop4554" stop-opacity="1" stop-color="#d8e2e7" offset="0.76" ></stop></radialGradient><radialGradient id="SvgjsRadialGradient4556" cx="129.05" cy="85.956" r="15.117" gradientTransform="matrix(-0.9945 0.1042 0.1042 0.9945 192.8274 -12.4637)" gradientUnits="userSpaceOnUse" class="svga-on-canvas-eyesfront-gradient-left-0"><stop id="SvgjsStop4557" stop-opacity="1" stop-color="#ffffff" offset="0" ></stop><stop id="SvgjsStop4558" stop-opacity="1" stop-color="#fcfdfd" offset="0.316" ></stop><stop id="SvgjsStop4559" stop-opacity="1" stop-color="#f4f7f8" offset="0.505" ></stop><stop id="SvgjsStop4560" stop-opacity="1" stop-color="#e5ecef" offset="0.661" ></stop><stop id="SvgjsStop4561" stop-opacity="1" stop-color="#d8e2e7" offset="0.76" ></stop></radialGradient><radialGradient id="SvgjsRadialGradient4565" cx="121.786" cy="84.496" fx="133.039" fy="84.527" r="16.003" gradientTransform="matrix(0.9998 0.0208 0.0166 -0.7998 -44.9524 149.5433)" gradientUnits="userSpaceOnUse" class="svga-on-canvas-eyesfront-gradient-left-3"><stop id="SvgjsStop4566" stop-opacity="1" stop-color="#d98f72" offset="0" ></stop><stop id="SvgjsStop4567" stop-opacity="0.3" stop-color="#d98f72" offset="0.7" ></stop><stop id="SvgjsStop4568" stop-opacity="0" stop-color="#e8aa91" offset="1" ></stop></radialGradient><radialGradient id="SvgjsRadialGradient4570" cx="69.124" cy="107.529" r="29.525" gradientTransform="matrix(1.0336 0 0 1.0336 -1.6792 1.7282)" gradientUnits="userSpaceOnUse" class="svga-on-canvas-eyesfront-gradient-left-4"><stop id="SvgjsStop4571" stop-opacity="0" stop-color="#000000" offset="0.95" ></stop><stop id="SvgjsStop4572" stop-opacity="0.3" stop-color="#000000" offset="1" ></stop></radialGradient><radialGradient id="SvgjsRadialGradient4576" cx="129.049" cy="85.956" r="15.117" gradientTransform="matrix(0.9945 0.1042 -0.1042 0.9945 7.1735 -12.4637)" gradientUnits="userSpaceOnUse" class="svga-on-canvas-eyesfront-gradient-right-0"><stop id="SvgjsStop4577" stop-opacity="1" stop-color="#ffffff" offset="0" ></stop><stop id="SvgjsStop4578" stop-opacity="1" stop-color="#fcfdfd" offset="0.316" ></stop><stop id="SvgjsStop4579" stop-opacity="1" stop-color="#f4f7f8" offset="0.505" ></stop><stop id="SvgjsStop4580" stop-opacity="1" stop-color="#e5ecef" offset="0.661" ></stop><stop id="SvgjsStop4581" stop-opacity="1" stop-color="#d8e2e7" offset="0.76" ></stop></radialGradient><radialGradient id="SvgjsRadialGradient4585" cx="121.786" cy="84.496" fx="133.039" fy="84.527" r="16.003" gradientTransform="matrix(-0.9998 0.0208 -0.0166 -0.7998 244.9525 149.5433)" gradientUnits="userSpaceOnUse" class="svga-on-canvas-eyesfront-gradient-right-3"><stop id="SvgjsStop4586" stop-opacity="1" stop-color="#d98f72" offset="0" ></stop><stop id="SvgjsStop4587" stop-opacity="0.3" stop-color="#d98f72" offset="0.7" ></stop><stop id="SvgjsStop4588" stop-opacity="0" stop-color="#e8aa91" offset="1" ></stop></radialGradient><radialGradient id="SvgjsRadialGradient4590" cx="69.124" cy="107.529" r="29.525" gradientTransform="matrix(-1.0336 0 0 1.0336 201.6792 1.7282)" gradientUnits="userSpaceOnUse" class="svga-on-canvas-eyesfront-gradient-right-4"><stop id="SvgjsStop4591" stop-opacity="0" stop-color="#000000" offset="0.95" ></stop><stop id="SvgjsStop4592" stop-opacity="0.3" stop-color="#000000" offset="1" ></stop></radialGradient><linearGradient id="SvgjsLinearGradient4657" x1="130" y1="81" x2="126" y2="85" gradientTransform="matrix(1 0 0 1 -50 0)" gradientUnits="userSpaceOnUse" class="svga-on-canvas-eyesiris-gradient-left-1"><stop id="SvgjsStop4658" stop-opacity="1" stop-color="#ffffff" offset="0" ></stop><stop id="SvgjsStop4659" stop-opacity="0" stop-color="#ffffff" offset="1" ></stop></linearGradient><linearGradient id="SvgjsLinearGradient4662" x1="130" y1="81" x2="126" y2="85" gradientUnits="userSpaceOnUse" class="svga-on-canvas-eyesiris-gradient-right-1"><stop id="SvgjsStop4663" stop-opacity="1" stop-color="#ffffff" offset="0" ></stop><stop id="SvgjsStop4664" stop-opacity="0" stop-color="#ffffff" offset="1" ></stop></linearGradient><linearGradient id="SvgjsLinearGradient4855" x1="100" y1="142" x2="100" y2="139" gradientUnits="userSpaceOnUse" class="svga-on-canvas-mouth-gradient-single-0"><stop id="SvgjsStop4856" stop-opacity="1" stop-color="#e09c81" offset="0.1" ></stop><stop id="SvgjsStop4857" stop-opacity="1" stop-color="#d98f72" offset="1" ></stop></linearGradient></defs><g id="svga-group-wrapper"><g id="svga-group-backs-single"><path id="SvgjsPath3127" d="M225 225H-25V-25h250V225z" fill="#ecf0f1" stroke-width="none" opacity="1"></path></g><g id="svga-group-humanwrap-move" transform="matrix(1,0,0,1,0,0)"><g id="svga-group-humanwrap" transform="matrix(1,0,0,1,0,0)"><g id="svga-group-hair-back-move" transform="matrix(1,0,0,1,0,0)"><g id="svga-group-hair-back" transform="matrix(1,0,0,1,0,0)"><path id="SvgjsPath4955" d="M160 24.999H40c0 0-1 193.284-1 199h123L160 24.999z" fill="#2f211e" stroke-width="none" opacity="1"></path></g></g><g id="svga-group-humanbody-single"><path id="SvgjsPath3147" d="M190.858 199.866c-6.008-10.158-13.474-11.973-19.628-13.936 -6.323-2.016-19.346-3.178-26.449-4.6 -6.86-1.373-23.153-5.789-23.339-13.488 -0.192-8.066 4.291-40.09 4.291-40.09H74.005c0 0 4.487 32.023 4.294 40.09 -0.184 7.699-16.48 12.115-23.341 13.488 -7.104 1.422-20.125 2.584-26.448 4.6 -6.156 1.963-13.624 3.777-19.632 13.936 -3.644 6.16-6.008 16.133-6.008 27.133h194C196.869 215.999 194.509 206.026 190.858 199.866z" fill="#e8aa91" stroke-width="none" opacity="1" stroke="none"></path><path id="SvgjsPath3148" d="M121.442 167.843c2.495 10.929 18.165 13.698 26.293 15.325 21.909 4.379 33.772 5.134 42.297 19.539 2.903 4.916 5.459 15.864 5.962 24.153 1.835 0.291 0.531-17.432-5.136-26.994 -9.742-16.472-29.089-15.135-46.077-18.535C137.921 179.958 121.628 175.542 121.442 167.843L121.442 167.843zM78.558 167.843c-0.186 7.699-16.479 12.115-23.339 13.488 -16.988 3.4-36.335 2.063-46.077 18.535 -5.667 9.563-6.971 27.285-5.136 26.994 0.503-8.289 3.059-19.237 5.962-24.153 8.524-14.405 20.388-15.16 42.297-19.539C60.393 181.541 76.063 178.771 78.558 167.843L78.558 167.843z" fill="#f7c7b3" stroke-width="none" opacity="1" stroke="none"></path><path id="SvgjsPath3149" d="M51.206 189.513c0 0 28.641 0.299 33.473 1.885 2.314 0.758 8.372 5.633 8.372 5.633s-6.556-3.17-8.658-3.758C79.51 191.909 51.206 189.513 51.206 189.513zM99.795 199.999c2.053-0.041 7.887-3.799 7.887-3.799s-5.574 2.059-7.342 2.16c-1.491 0.086-6.366-1.238-6.366-1.238S98.112 200.032 99.795 199.999zM117.008 192.757c6.75-1.818 29.786-3.23 29.786-3.23s-23.791-0.516-30.51 1.725c-2.252 0.752-7.562 5.16-7.562 5.16S114.786 193.354 117.008 192.757z" fill="#d98f72" stroke-width="none" opacity="1" stroke="none"></path><path id="SvgjsPath3150" d="M190.858 199.866c-9.741-16.471-29.122-15.142-46.077-18.535 -6.86-1.373-23.153-5.789-23.339-13.488 -0.192-8.066 4.291-40.09 4.291-40.09H74.005c0 0 4.487 32.023 4.294 40.09 -0.184 7.699-16.48 12.115-23.341 13.488 -7.104 1.422-20.125 2.584-26.448 4.6 -6.156 1.963-13.624 3.777-19.632 13.936 -3.644 6.16-6.008 16.133-6.008 27.133h194C196.869 215.999 194.509 206.026 190.858 199.866z" fill="none" stroke="#ba613c" stroke-width="1.5" opacity="1"></path></g><g id="svga-group-chinshadow-single"><path id="SvgjsPath3310" d="M86.802 168.302c5.312 2.491 21.035 2.373 26.401 0 2.491-1.102 5.112-2.879 7.755-5.086 0.699-10.328 3.327-29.728 3.986-34.51 -1.113-0.109-2.256-0.21-3.428-0.303H78.609c-1.305 0.103-2.578 0.216-3.811 0.339 0.66 4.783 3.223 23.705 3.958 34.093C81.507 165.186 84.231 167.097 86.802 168.302z" fill="url(#SvgjsLinearGradient3311)" opacity="1"></path></g><g id="svga-group-clothes-single"><path id="SvgjsPath4788" d="M131.897 174.908c-0.71-5.501-7.712-10.543-9.75-12.442 -0.236 4.085-0.705 6.017 0.606 8.112 -2.489 5.646-14.874 8.832-17.736 16.158 -4.637 3.334-2.905 14.993-3.52 16.256 -0.487 2.981-0.519 2.893-0.978 4.772 -3.689-9.722-0.965-15.924-5.341-19.41 -0.775-8.344-16.73-10.325-19.263-16.676 0.044 0.023 0.081 0.056 0.13 0.07 1.999-1.699 1.916-4.357 1.692-6.688 -0.017-0.763 0.014-0.165-0.167-2.685 -1 0.218-8.943 7.903-9.563 12.353 -47.123 17.062-66.354-0.609-66.371 57.268 6.439 0.001 14.098 0.142 24.677 0.336 58.466 1.074 109.342 1.267 171.612 1.073C203.17 174.271 165.243 186.777 131.897 174.908z" fill="#486288" stroke-width="none" opacity="1" stroke="none"></path><path id="SvgjsPath4789" d="M77.752 165.168c0.502 3-0.564 5.945-1.705 6.581 -0.016-0.005-0.106 0.019-0.219 0.051C73.604 169.312 76.813 167.496 77.752 165.168zM121.952 165.255c-0.163 2.308-0.168 3.773 0.802 5.323C123.256 169.933 123.97 166.587 121.952 165.255z" fill="#233f69" stroke-width="none" opacity="1" stroke="none"></path><path id="SvgjsPath4790" d="M103 195c0-2.728 0.938-5.447 2.163-7.857 -0.157 1.619-0.023 3.621-0.023 5.24C115.16 191.159 128 188 132 177 129 190 115 194 103 195zM94.745 192.708c-4.508 1.127-23.834-6.931-25.875-13.89 1.958 11.167 15.81 13.406 26.81 16.406 0.525-2.625 0.133-4.42-0.417-6.638C95.262 188.587 94.495 191.708 94.745 192.708zM164.039 226.686c0.069-1 1.299-4.924 0.91-10.45 -0.569-11.436-1.158-14.953-4.13-24.87 1.838 5.188 2.378 5.507 4.24 14.58C167.123 215.282 163.961 228.045 164.039 226.686zM39.309 188.136c-4.773 10.695-7.132 14.257-6.07 27l-0.01-0.021c0.089 1 0.533 6.777 1.02 9.73 -0.489-10.028-0.196-3.99-0.33-9.73 0-10 0 9.97 0-0.03C33.314 205.074 36.536 200 39.309 188.136zM12.049 220.966c-0.347-2.074 1.398-21.812 10.73-28.311 0.95-0.647 1.46-1.007 0.48-0.39C9.37 201.488 12.049 223.12 12.049 220.966z" fill="#345079" stroke-width="none" opacity="1" stroke="none"></path><path id="SvgjsPath4791" d="M123.271 170.918c-0.382 5.633-14.783 10.771-18.217 18.123C105.395 179.851 118.691 177.167 123.271 170.918zM94.875 189.728c0.874-7.739-14.001-12.106-19.817-18.3C78.375 179.783 87.87 178.72 94.875 189.728zM191.032 202.707c5.535 9.07 4.81 18.807 6.837 24.292 0-11-1.255-20.75-4.75-26.999 -10.75-19.222-20.933-12.19-61.891-25.213C170.494 190.11 180.681 185.745 191.032 202.707zM68.771 174.787C27.813 187.81 17.631 180.778 6.881 200c-3.495 6.249-4.75 15.999-4.75 26.999 2.027-5.485 1.302-15.222 6.837-24.292C19.319 185.745 29.506 190.11 68.771 174.787z" fill="#5f7697" stroke-width="none" opacity="1" stroke="none"></path><path id="SvgjsPath4792" d="M131.989 174.835c-0.58-4.709-6.171-9.438-9.833-12.482l-0.019 0.242c10.193 9.529 9.228 12.276 8.212 15.74 -0.379 1.423-2.306 4.396-5.381 6.65 -5.775 4.592-18.388 7.196-19.76 7.3 -0.986-10.086 6.97-9.877 15.59-18.06 0.426-0.408 1.954-2.042 2.08-2.561 1.445-2.345 0.869-4.797-0.864-6.922l-0.026 0.539c5.861 9.314-13.443 12.09-17.029 21.373 -4.667 3.355-2.955 15.05-3.56 16.32 -0.527 3.224-0.562 3.035-0.9 4.45 -2.902-7.66-1.46-10.241-2.89-15.261 0-0.01 0-0.01 0-0.01 -0.421-1.474-1.108-2.883-2.33-3.81 -1.001-10.774-26.998-11.045-17.54-23.285l-0.035-0.506c-12.585 13.44 18.053 12.91 16.834 28.131 -3.949 0.233-4.683-1.386-9.07-2.51 -9.301-2.722-19.946-10.46-15.35-19.051 1.694-3.16 4.616-6.051 7.444-8.681l-0.015-0.252c-3.709 3.074-8.965 7.575-9.629 12.463 -10.404 3.77-6.731 2.755-14.67 4.64 -42.604 7.271-51.71 8.612-51.71 52.801 23.243 0 62.481 1.831 196.48 1.409C203.358 173.707 164.567 186.764 131.989 174.835zM1.729 231.855c0.37-22.729 0.68-40.048 30.82-47.5 14.567-3.776 16.128-1.387 35.34-9.25 -0.288 10.922 12.107 14.433 22.59 17.49 1.68 0.484 2.988 0.49 4.4 0.26 0.12-0.824 0.529-3.08 0.42-4.08 0.964 0.965 1.456 2.188 1.75 3.51 0.311 0.312 0.496 5.03 0.51 5.47 0.518 14.971 3.707 3.918 3.29 33.671C90.129 231.426 31.302 231.643 1.729 231.855zM101.819 231.426c0.793-10.911 1.635-12.78-0.36-21.19 1.847-6.996 1.21-9.104 1.21-14.23 -0.002-0.216 0.067-3.607 0.22-3.76 0.232-1.889 0.632-3.541 1.801-4.71 -0.334 1.382-0.086 3.574 0.14 4.95 13.034 0 28.936-8.348 27.2-17.2 30.37 12.298 64.938 3.99 65.64 46.101 0.187 2.804 0.154 4.91 0.22 11.77C121.583 231.592 110.039 231.381 101.819 231.426z" fill="#15315a" stroke-width="none" opacity="1" stroke="none"></path></g><g id="svga-group-head" transform="matrix(1,0,0,1,0,0)"><g id="svga-group-ears-left-move" transform="matrix(1,0,0,1,0,0)" style=""><g id="svga-group-ears-left" transform="matrix(1,0,0,1,0,0)"><path id="SvgjsPath3497" d="M47.218 82.634c-0.967-2.31-8.082-5.576-11.21-5.06 -3.538 0.583-4.838 4.047-4.369 6.612 1.103 6.025 3.996 8.563 5.296 13.268 1.096 3.97 3.433 6.253 4.588 7.938 1.42 2.07 2.73 6.818 3.023 7.512 0.463 1.096 2.103 3.757 5.002 3.619 3.333-0.16 7.545-6.211 7.614-7.557C57.544 101.679 49.733 88.647 47.218 82.634z" fill="#e8aa91" stroke="#ba613c" stroke-width="1.5" opacity="1"></path><path id="SvgjsPath3498" d="M47.953 107.204c0 0 0.429-0.995-0.094-1.879 -0.672-1.134-2.423-3.219-2.821-4.467 -0.325-1.021-0.16-3.2-0.213-4.266 -0.094-1.886-1.492-3.177-1.927-4.26 -2.914-7.238-6.792-11.723-9-12.656 -1.633 3.705-0.339 6.416 1.94 12.116 -1.375-7.748-0.054-10.17-0.054-10.17S39.803 84.842 41.786 92c0.359 1.292-1.111 3.988-0.83 5.299 0.352 1.646 4.184 4.83 5.257 6.163C47.049 104.5 47.953 107.204 47.953 107.204z" fill="#ba613c" stroke-width="none" opacity="1" stroke="none"></path></g></g><g id="svga-group-ears-right-move" transform="matrix(1,0,0,1,0,0)" style=""><g id="svga-group-ears-right" transform="matrix(1,0,0,1,0,0)"><path id="SvgjsPath3499" d="M152.52 82.634c0.967-2.31 8.082-5.576 11.211-5.06 3.539 0.583 4.838 4.047 4.369 6.612 -1.104 6.025-3.996 8.563-5.297 13.268 -1.096 3.97-3.434 6.253-4.588 7.938 -1.42 2.07-2.73 6.818-3.023 7.512 -0.463 1.096-2.104 3.757-5.002 3.619 -3.332-0.16-7.545-6.211-7.613-7.557C142.193 101.679 150.006 88.647 152.52 82.634z" fill="#e8aa91" stroke="#ba613c" stroke-width="1.5" opacity="1"></path><path id="SvgjsPath3500" d="M151.785 107.204c0 0-0.43-0.995 0.094-1.879 0.672-1.134 2.424-3.219 2.82-4.467 0.324-1.021 0.16-3.2 0.215-4.266 0.094-1.886 1.49-3.177 1.926-4.26 2.914-7.238 6.793-11.723 9-12.656 1.633 3.705 0.338 6.416-1.939 12.116 1.375-7.748 0.053-10.17 0.053-10.17s-4.018 3.219-6.002 10.376c-0.357 1.292 1.111 3.988 0.83 5.299 -0.352 1.646-4.184 4.83-5.256 6.163C152.689 104.5 151.785 107.204 151.785 107.204z" fill="#ba613c" stroke-width="none" opacity="1" stroke="none"></path></g></g><g id="svga-group-faceshape-wrap" transform="matrix(1,0,0,1,0,0)"><g id="svga-group-faceshape-single"><path id="SvgjsPath3307" d="M144.004 125.052c-5.003 10.066-20.047 27.996-30.801 32.751 -5.366 2.374-21.089 2.491-26.401 0 -10.646-4.989-25.765-22.701-30.801-32.751 -5.613-11.199-14.852-47.803-14.863-47.856 -1.3-4.912-1.996-10.066-2.004-15.382C39.082 28.339 66.289 1.168 99.907 1.116c33.621-0.052 60.913 27.032 60.963 60.506 0.009 5.316-0.669 10.473-1.952 15.389C158.901 77.063 149.6 113.79 144.004 125.052z" fill="#e8aa91" stroke-width="none" opacity="1" stroke="none"></path><path id="SvgjsPath3308" d="M110.152 1.969c26.994 6.24 47.097 30.337 47.052 59.111 -0.009 5.315-0.704 10.471-2.004 15.382 -0.012 0.053-8.61 36.669-14.13 47.856 -4.859 9.849-19.7 27.043-30.067 32.019 -2.163 1.037-8.694 1.529-11.001 1.529 -2.307 0-8.837-0.492-11-1.529 -10.367-4.976-25.209-22.17-30.067-32.019 -5.521-11.188-14.119-47.803-14.13-47.856 -1.3-4.911-1.996-10.066-2.004-15.382C42.756 32.307 62.857 8.209 89.853 1.969 61.03 6.788 39.087 31.751 39.134 61.813c0.008 5.315 0.704 10.47 2.004 15.382 0.012 0.053 9.232 36.665 14.863 47.856 5.052 10.041 20.207 27.65 30.801 32.751 2.658 1.28 9.305 1.827 12.954 1.824 3.646 0.003 10.791-0.544 13.447-1.824 10.594-5.102 25.748-22.71 30.801-32.751 5.631-11.191 14.852-47.803 14.862-47.856 1.3-4.912 1.996-10.066 2.004-15.382C160.918 31.751 138.975 6.788 110.152 1.969z" fill="#e09c81" stroke-width="none" opacity="1" stroke="none"></path><path id="SvgjsPath3309" d="M144.004 125.052c-5.003 10.066-20.047 27.996-30.801 32.751 -5.366 2.374-21.089 2.491-26.401 0 -10.646-4.989-25.765-22.701-30.801-32.751 -5.613-11.199-14.852-47.803-14.863-47.856 -1.3-4.912-1.996-10.066-2.004-15.382C39.082 28.339 66.289 1.168 99.907 1.116c33.621-0.052 60.913 27.032 60.963 60.506 0.009 5.316-0.669 10.473-1.952 15.389C158.901 77.063 149.6 113.79 144.004 125.052z" fill="none" stroke="#ba613c" stroke-width="1.5" opacity="1"></path></g></g><g id="svga-group-mouth-single-move" transform="matrix(1,0,0,1,0,0)"><g id="svga-group-mouth-single" transform="matrix(1,0,0,1,0,0)"><path id="SvgjsPath4854" d="M100.126 141.95c-2.835 0-3.5-2.934-3.5-2.934s3.898 0.763 7 0C103.626 139.017 102.621 141.95 100.126 141.95z" fill="url(#SvgjsLinearGradient4855)" opacity="1"></path><path id="SvgjsPath4858" d="M100.523 139.779c-1.987 0-3.757-0.267-3.868-0.283 -0.137-0.021-0.23-0.147-0.209-0.284 0.021-0.137 0.154-0.226 0.285-0.209 0.041 0.005 4.071 0.61 6.747 0.002 0.133-0.025 0.27 0.055 0.3 0.189s-0.054 0.268-0.188 0.299C102.643 139.708 101.554 139.779 100.523 139.779z" fill="#ba613c" stroke-width="none" opacity="1"></path><path id="SvgjsPath4859" d="M84 130c0 0 11.487 1.189 15.325 1.199C103.499 131.208 117 130 117 130c-3.903 2.826-8.199 5.543-17.926 5.597C90.373 135.646 88.145 132.889 84 130z" fill="#ffffff" stroke-width="none" opacity="1"></path><path id="SvgjsPath4860" d="M84 130c0 0 11.487 1.189 15.325 1.199C103.499 131.208 117 130 117 130c-3.903 2.826-8.199 5.543-17.926 5.597C90.373 135.646 88.145 132.889 84 130z" fill="none" stroke="#ba613c" stroke-width="0.75" opacity="1"></path></g></g><g id="svga-group-eyes-left-move" transform="matrix(1,0,0,1,0,0)"><g id="svga-group-eyes-left" transform="matrix(1,0,0,1,0,0)"><g id="svga-group-eyesback-left"><path id="SvgjsPath4541" d="M61.952 84.523c-0.506-2.285 5.191-3.973 12.711-3.051 7.518 0.923 12.738 5.524 12.052 7.844 -0.38 1.286-10.639 3.245-14.253 2.847C68.798 91.758 63.174 90.04 61.952 84.523z" fill="url(#SvgjsRadialGradient4542)" opacity="1"></path></g><g id="svga-group-eyesiriswrapper-left" transform="matrix(1,0,0,1,-0.75,-0.5)"><g id="svga-group-eyesiriscontrol-left" transform="matrix(1,0,0,1,0,0)"><g id="svga-group-eyesiris-left" transform="matrix(1,0,0,1,0,0)"><path id="SvgjsPath4665" d="M83.199 89.25c-1.231 4.522-5.896 7.187-10.429 5.944 -4.528-1.241-7.203-5.918-5.97-10.442 1.23-4.526 5.905-7.19 10.434-5.947C81.761 80.045 84.433 84.723 83.199 89.25z" fill="#2f281d" stroke="#010100" stroke-width="0.5" opacity="1"></path><path id="SvgjsPath4666" d="M82.994 87.526c-0.625 5.021-4.353 7.638-8.432 7.365 -3.765-0.253-7.131-3.031-7.443-7.828 1.302-0.374 3.031 0.234 4.549 0.002 -0.005 0.055-0.023 0.104-0.025 0.16 -0.12 1.842 1.357 3.446 3.299 3.577 1.946 0.13 3.62-1.263 3.74-3.104 0.013-0.24-0.002-0.476-0.038-0.702C79.997 87.2 81.648 86.999 82.994 87.526z" fill="#3e372d" stroke-width="none" opacity="1" stroke="none"></path><path id="SvgjsPath4667" d="M76.229 84.164c-1.869-0.535-3.777 0.533-4.26 2.396 -0.483 1.853 0.642 3.793 2.51 4.329 1.873 0.537 3.781-0.532 4.266-2.386C79.23 86.639 78.101 84.7 76.229 84.164z" fill="#000000" stroke-width="none" opacity="0.9"></path><path id="SvgjsPath4668" d="M76.229 84.164c-1.869-0.535-3.777 0.533-4.26 2.396 -0.483 1.853 0.642 3.793 2.51 4.329 1.873 0.537 3.781-0.532 4.266-2.386C79.23 86.639 78.101 84.7 76.229 84.164z" fill="none" stroke="#010100" stroke-width="0.75" opacity="1"></path><path id="SvgjsPath4669" d="M70.977 92.181c-0.177 0.619-1.142 0.356-0.965-0.266 0.171-0.6 0.633-0.967 0.926-1.495 0.313-0.564 1.177-0.06 0.863 0.505C71.56 91.36 71.114 91.696 70.977 92.181L70.977 92.181zM72.516 91.194c-0.266 0.31-0.614 1.458-0.766 1.834 -0.241 0.598 0.727 0.856 0.965 0.266 0.082-0.205 0.362-1.223 0.508-1.393C73.64 91.415 72.936 90.704 72.516 91.194L72.516 91.194zM74.598 94.151c0.522-0.602 0.47-1.292 0.459-2.041 -0.01-0.644-1.01-0.645-1 0 0.006 0.415 0.13 0.992-0.166 1.334C73.47 93.929 74.175 94.639 74.598 94.151L74.598 94.151zM75.619 91.985c0.008 0.621 0.084 1.226 0.268 1.82 0.19 0.614 1.155 0.352 0.965-0.266 -0.159-0.513-0.226-1.019-0.232-1.555C76.611 91.341 75.611 91.34 75.619 91.985L75.619 91.985z" fill="#ffffff" stroke-width="none" opacity="0.5"></path><path id="SvgjsPath4670" d="M80.946 85.543c-0.985 0.59-2.466 0.059-3.305-1.188 -0.838-1.248-0.713-2.739 0.273-3.328 0.984-0.593 2.467-0.061 3.301 1.187C82.053 83.462 81.932 84.952 80.946 85.543z" fill="#ffffff" stroke-width="none" opacity="0.8"></path></g></g></g><g id="svga-group-eyesfront-left"><path id="SvgjsPath4563" d="M55.5 88c0 13.807 8.06 24.999 18 24.999s18-11.192 18-24.999c0-13.808-8.06-25-18-25S55.5 74.192 55.5 88zM61.952 84.523c-0.506-2.285 5.191-3.973 12.711-3.051 7.518 0.923 12.738 5.524 12.052 7.844 -0.38 1.286-10.639 3.245-14.253 2.847C68.798 91.758 63.174 90.04 61.952 84.523z" fill="#e8aa91" stroke-width="none" opacity="1" stroke="none"></path><path id="SvgjsPath4564" d="M72.462 92.163c3.614 0.398 13.873-1.561 14.253-2.847 0.687-2.32-4.534-6.921-12.052-7.844 -6.46-0.792-11.563 0.345-12.556 2.128 0.898-6.4 7.7-11.397 15.987-11.434 8.911-0.037 16.148 5.676 16.172 12.765 0.021 7.088-7.185 12.862-16.095 12.902 -8.913 0.037-16.149-5.676-16.173-12.764 0-0.105 0.016-0.208 0.019-0.313C63.348 90.083 68.852 91.764 72.462 92.163z" fill="url(#SvgjsRadialGradient4565)" opacity="1"></path><path id="SvgjsPath4569" d="M61.952 84.523c-0.506-2.285 5.191-3.973 12.711-3.051 7.518 0.923 12.738 5.524 12.052 7.844 -0.38 1.286-10.639 3.245-14.253 2.847C68.798 91.758 63.174 90.04 61.952 84.523z" fill="url(#SvgjsRadialGradient4570)" opacity="1"></path><path id="SvgjsPath4573" d="M62.349 79.417c4.208-1.978 9.35-2.16 13.838-1.005 2.404 0.561 4.965 1.285 7.063 2.638 1.945 1.135 3.525 2.5 5.002 4.19 -1.342-1.701-2.773-3.118-4.623-4.27 -2.276-1.416-4.769-2.294-7.364-2.916C71.678 76.928 66.542 77.184 62.349 79.417z" fill="#ba613c" stroke-width="none" opacity="1" stroke="none"></path><path id="SvgjsPath4574" d="M57.318 80.972c0 0 2.328 0.881 3.595 0.62 -0.39-0.459-1.096-1.604-1.096-1.604s1.853 0.551 3.151 0.032c0.88-0.352 4.065-1 5.456-1.066 1.687-0.082 5.073 0.125 6.735 0.424 3.374 0.608 8.985 2.63 11.678 7.184 0.255 0.572 1.407 0.921 1.407 0.921s-1.02-0.215-1.149 0.042c-0.282 0.561 1.298 2.016 1.496 2.197 -0.161-0.145-1.289-1.135-1.722-0.967 -0.061 0.022-0.137 0.388-0.155 0.482 0.3-2.426-4.838-6.746-12.052-7.604 -7.52-0.894-13.217 0.743-12.711 2.958 1.222 5.348 6.846 7.013 10.51 7.405 2.526 0.271 8.298-0.577 11.675-1.537l1.011-0.317c-1.999 1.009-7.524 2.195-9.767 2.403 -0.744 0.07-2.24 0.104-2.986 0.085 -5.949-0.158-10.16-3.179-11.729-7.26 -0.125-0.328-0.494-0.619-0.838-0.696 -1.604-0.361-5.096-1.811-5.096-1.811 2.32 0.361 3.483 0.674 5.305 0.059C58.257 82.256 57.318 80.972 57.318 80.972z" fill="#0d0c0c" stroke-width="none" opacity="1" stroke="none"></path></g></g></g><g id="svga-group-eyes-right-move" transform="matrix(1,0,0,1,0,0)"><g id="svga-group-eyes-right" transform="matrix(1,0,0,1,0,0)"><g id="svga-group-eyesback-right"><path id="SvgjsPath4548" d="M138.048 84.523c0.506-2.285-5.191-3.973-12.711-3.051 -7.518 0.923-12.738 5.524-12.052 7.844 0.38 1.286 10.639 3.245 14.253 2.847C131.202 91.758 136.826 90.04 138.048 84.523z" fill="url(#SvgjsRadialGradient4549)" opacity="1"></path></g><g id="svga-group-eyesiriswrapper-right" transform="matrix(1,0,0,1,0.75,-0.5)"><g id="svga-group-eyesiriscontrol-right" transform="matrix(1,0,0,1,0,0)"><g id="svga-group-eyesiris-right" transform="matrix(1,0,0,1,0,0)"><path id="SvgjsPath4671" d="M133.199 89.25c-1.231 4.522-5.896 7.187-10.429 5.944 -4.528-1.241-7.203-5.918-5.97-10.442 1.23-4.526 5.905-7.19 10.434-5.947C131.761 80.045 134.433 84.723 133.199 89.25z" fill="#2f281d" stroke="#010100" stroke-width="0.5" opacity="1"></path><path id="SvgjsPath4672" d="M132.994 87.526c-0.625 5.021-4.353 7.638-8.432 7.365 -3.765-0.253-7.131-3.031-7.443-7.828 1.302-0.374 3.031 0.234 4.549 0.002 -0.005 0.055-0.023 0.104-0.025 0.16 -0.12 1.842 1.357 3.446 3.299 3.577 1.946 0.13 3.62-1.263 3.74-3.104 0.013-0.24-0.002-0.476-0.038-0.702C129.997 87.2 131.648 86.999 132.994 87.526z" fill="#3e372d" stroke-width="none" opacity="1" stroke="none"></path><path id="SvgjsPath4673" d="M126.229 84.164c-1.869-0.535-3.777 0.533-4.26 2.396 -0.483 1.853 0.642 3.793 2.51 4.329 1.873 0.537 3.781-0.532 4.266-2.386C129.23 86.639 128.101 84.7 126.229 84.164z" fill="#000000" stroke-width="none" opacity="0.9"></path><path id="SvgjsPath4674" d="M126.229 84.164c-1.869-0.535-3.777 0.533-4.26 2.396 -0.483 1.853 0.642 3.793 2.51 4.329 1.873 0.537 3.781-0.532 4.266-2.386C129.23 86.639 128.101 84.7 126.229 84.164z" fill="none" stroke="#010100" stroke-width="0.75" opacity="1"></path><path id="SvgjsPath4675" d="M120.977 92.181c-0.177 0.619-1.142 0.356-0.965-0.266 0.171-0.6 0.633-0.967 0.926-1.495 0.313-0.564 1.177-0.06 0.863 0.505C121.56 91.36 121.114 91.696 120.977 92.181L120.977 92.181zM122.516 91.194c-0.266 0.31-0.614 1.458-0.766 1.834 -0.241 0.598 0.727 0.856 0.965 0.266 0.082-0.205 0.362-1.223 0.508-1.393C123.64 91.415 122.936 90.704 122.516 91.194L122.516 91.194zM124.598 94.151c0.522-0.602 0.47-1.292 0.459-2.041 -0.01-0.644-1.01-0.645-1 0 0.006 0.415 0.13 0.992-0.166 1.334C123.47 93.929 124.175 94.639 124.598 94.151L124.598 94.151zM125.619 91.985c0.008 0.621 0.084 1.226 0.268 1.82 0.19 0.614 1.155 0.352 0.965-0.266 -0.159-0.513-0.226-1.019-0.232-1.555C126.611 91.341 125.611 91.34 125.619 91.985L125.619 91.985z" fill="#ffffff" stroke-width="none" opacity="0.5"></path><path id="SvgjsPath4676" d="M130.946 85.543c-0.985 0.59-2.466 0.059-3.305-1.188 -0.839-1.248-0.714-2.739 0.272-3.328 0.984-0.593 2.467-0.061 3.301 1.187C132.054 83.462 131.932 84.952 130.946 85.543z" fill="#ffffff" stroke-width="none" opacity="0.8"></path></g></g></g><g id="svga-group-eyesfront-right"><path id="SvgjsPath4583" d="M126.5 63c-9.94 0-18 11.192-18 25 0 13.807 8.06 24.999 18 24.999s18-11.192 18-24.999C144.5 74.192 136.44 63 126.5 63zM127.538 92.163c-3.614 0.398-13.873-1.561-14.253-2.847 -0.687-2.32 4.534-6.921 12.052-7.844 7.52-0.922 13.217 0.767 12.711 3.051C136.826 90.04 131.202 91.758 127.538 92.163z" fill="#e8aa91" stroke-width="none" opacity="1" stroke="none"></path><path id="SvgjsPath4584" d="M127.538 92.163c-3.614 0.398-13.873-1.561-14.253-2.847 -0.687-2.32 4.534-6.921 12.052-7.844 6.46-0.792 11.563 0.345 12.556 2.128 -0.898-6.4-7.7-11.397-15.987-11.434 -8.911-0.037-16.148 5.676-16.172 12.765 -0.021 7.088 7.185 12.862 16.095 12.902 8.913 0.037 16.149-5.676 16.173-12.764 0-0.105-0.016-0.208-0.019-0.313C136.652 90.083 131.148 91.764 127.538 92.163z" fill="url(#SvgjsRadialGradient4585)" opacity="1"></path><path id="SvgjsPath4589" d="M138.048 84.523c0.506-2.285-5.191-3.973-12.711-3.051 -7.518 0.923-12.738 5.524-12.052 7.844 0.38 1.286 10.639 3.245 14.253 2.847C131.202 91.758 136.826 90.04 138.048 84.523z" fill="url(#SvgjsRadialGradient4590)" opacity="1"></path><path id="SvgjsPath4593" d="M137.651 79.417c-4.208-1.978-9.35-2.16-13.838-1.005 -2.404 0.561-4.965 1.285-7.063 2.638 -1.945 1.135-3.525 2.5-5.002 4.19 1.342-1.701 2.773-3.118 4.623-4.27 2.276-1.416 4.769-2.294 7.364-2.916C128.322 76.928 133.458 77.184 137.651 79.417z" fill="#ba613c" stroke-width="none" opacity="1" stroke="none"></path><path id="SvgjsPath4594" d="M142.682 80.972c0 0-2.328 0.881-3.595 0.62 0.39-0.459 1.096-1.604 1.096-1.604s-1.853 0.551-3.151 0.032c-0.88-0.352-4.065-1-5.456-1.066 -1.687-0.082-5.073 0.125-6.735 0.424 -3.374 0.608-8.985 2.63-11.678 7.184 -0.255 0.572-1.407 0.921-1.407 0.921s1.02-0.215 1.149 0.042c0.282 0.561-1.298 2.016-1.496 2.197 0.161-0.145 1.289-1.135 1.722-0.967 0.061 0.022 0.137 0.388 0.155 0.482 -0.3-2.426 4.838-6.746 12.052-7.604 7.52-0.894 13.217 0.743 12.711 2.958 -1.222 5.348-6.846 7.013-10.51 7.405 -2.526 0.271-8.298-0.577-11.675-1.537l-1.011-0.317c1.999 1.009 7.524 2.195 9.767 2.403 0.744 0.07 2.24 0.104 2.986 0.085 5.949-0.158 10.16-3.179 11.729-7.26 0.125-0.328 0.494-0.619 0.838-0.696 1.604-0.361 5.096-1.811 5.096-1.811 -2.32 0.361-3.483 0.674-5.305 0.059C141.743 82.256 142.682 80.972 142.682 80.972z" fill="#0d0c0c" stroke-width="none" opacity="1" stroke="none"></path></g></g></g><g id="svga-group-facehighlight-single"><path id="SvgjsPath3139" d="M140.204 113.007c0.035 22.275-17.995 40.365-40.273 40.396 -22.274 0.036-40.361-17.993-40.396-40.272C59.501 90.857 77.53 72.77 99.808 72.735 122.083 72.701 140.171 90.73 140.204 113.007z" fill="url(#SvgjsRadialGradient3140)" opacity="1"></path><path id="SvgjsPath3143" d="M135,55.999c0,19.329-15.671,35-35,35c-19.329,0-35-15.671-35-35s15.671-35,35-35C119.329,20.999,135,36.67,135,55.999z" fill="url(#SvgjsRadialGradient3144)" opacity="1"></path></g><g id="svga-group-eyebrows-left-move" transform="matrix(1,0,0,1,0,0)"><g id="svga-group-eyebrows-left-rotate" transform="matrix(1,0,0,1,0,0)"><g id="svga-group-eyebrows-left" transform="matrix(1,0,0,1,0,0)"><path id="SvgjsPath4689" d="M52.488 73.87c7.475-9.383 20.338-7.822 30.878-6.314 2.681 0.384 5.441 0.672 8.07 1.336 1.884 0.475 3.365 2.622 1.851 4.356 -0.708 0.825-2.253 0.672-3.207 0.652C77.459 73.645 63.193 66.387 52.488 73.87z" fill="#2a232b" stroke-width="none" opacity="1"></path></g></g></g><g id="svga-group-eyebrows-right-move" transform="matrix(1,0,0,1,0,0)"><g id="svga-group-eyebrows-right-rotate" transform="matrix(1,0,0,1,0,0)"><g id="svga-group-eyebrows-right" transform="matrix(1,0,0,1,0,0)"><path id="SvgjsPath4690" d="M147.577 73.49c-2.164-1.448-4.454-2.47-7.043-2.889 -9.497-1.54-27.586 4.79-32.341 3.45 -2.912-0.822-2.323-3.739-1.035-4.458 0.775-0.433 0.99-0.422 7.909-1.612C126.824 65.961 139.988 64.355 147.577 73.49z" fill="#2a232b" stroke-width="none" opacity="1"></path></g></g></g><g id="svga-group-nose-single-move" transform="matrix(1,0,0,1,0,0)"><g id="svga-group-nose-single" transform="matrix(1,0,0,1,0,0)"><path id="SvgjsPath3344" d="M96.831 85.761c0 0-1.399 11.117-2.026 13.281 -1.379 4.752-6.168 11.418-5.239 14.43 1.859 6.022 7.537 4.493 10.524 4.471 2.763-0.022 8.072 1.552 9.162-2.37 0.352-1.266-0.441-4.466-0.441-4.466s-2.644 3.112-8.875 2.767c-1.778-0.099-4.671-2.096-4.704-4.912 -0.043-3.817 1.802-7.036 2.205-10.825C97.741 95.259 96.831 85.761 96.831 85.761z" fill="#d98f72" stroke-width="none" opacity="1" stroke="none"></path><path id="SvgjsPath3345" d="M105.194 116.207c1.075 0 1.366 0.326 1.366 0.729 0 0.404-0.335 1.026-1.366 0.73 -1.134-0.323-3.113-0.175-3.113-0.175S104.117 116.207 105.194 116.207zM94.922 116.207c-1.077 0.001-1.366 0.328-1.366 0.733 -0.001 0.403 0.323 0.983 1.366 0.729 1.15-0.282 3.112-0.175 3.112-0.175S95.999 116.211 94.922 116.207zM108.81 111.107c0 0 1.489 1.933 1.18 3.975 -0.301 1.983-3.31 2.861-3.31 2.861s2.089-1.516 2.342-3.356C109.14 113.725 108.81 111.107 108.81 111.107zM90.427 109.121c0 0-1.086 2.704-0.772 4.352 0.571 2.976 3.704 4.164 3.704 4.164s-1.955-2.039-2.65-3.842C89.948 111.825 90.427 109.121 90.427 109.121z" fill="#ba613c" stroke-width="none" opacity="1" stroke="none"></path><path id="SvgjsPath3346" d="M105.141 112.549c1.043-0.889 1.148-1.396 0.932-1.729 -0.215-0.334-0.841-0.545-1.714 0.528 -0.963 1.18-3.056 2.054-3.056 2.054S104.098 113.437 105.141 112.549z" fill="#f7c7b3" stroke-width="none" opacity="1" stroke="none"></path></g></g><g id="svga-group-hair-front" transform="matrix(1,0,0,1,0,0)"><path id="SvgjsPath4957" d="M44.483 18.786v192.7h39.633c-0.985-7.894-2.345-15.114-3.827-18.896 -7.734-19.635-34.67-24.746-29.979-50.592l0.186-0.036c5.161 11.272 7.599 17.786 19.622 19.774 -16.696-13.644-13.473-26.335-11.147-42.457 1.357-9.407-1.612-16.768-3.584-24.324 2.337-6.986 3.574-13.578 4.833-21.104C71.469 6.622 121.799 9.658 136.22 52.964c9.121 27.391 1.487 36.087 12.741 53.306 0.534 12.012 3.037 24.947-11.378 41.925 -3.168 3.731-7.858 7.637-11.999 10.247 15.048-1.334 23.306-15.722 28.299-29.979l0.183 0.058c-6.601 55.459-31.788 30.36-34.347 82.965h41.151v-192.7H44.483z" fill="#4e4341" stroke-width="none" opacity="0.1"></path><path id="SvgjsPath4958" d="M84.239 24.512c0 0 13.507 2.744 15.441 8.394 -9.837-0.448-14.145-3.676-28.021 1.726C74.877 29.073 84.239 24.512 84.239 24.512zM116.354 23.835c0 0-14.886-0.596-16.673 9.07 9.837-0.448 15.855-4.834 29.83 1.466C127.59 28.832 116.354 23.835 116.354 23.835z" fill="#2f211e" stroke-width="none" opacity="1"></path><path id="SvgjsPath4959" d="M171.325 103.155c12.474-84.818-28.429-117.88-66.57-108.483C62.686-15.575 30.577 5.914 25.649 64.39c-0.889 20.541 1.352 36.037 1.709 39.729 -2.823 5.811-4.602 12.117-5.334 18.632 -2.28 1.989-4.366 3.558-6.692 5.203 1.216-0.168 3.034-0.383 6.451-1.384 -0.802 22.784 10.506 26.852 9.795 45.72 -0.663 12.739-0.707 13.817 1.769 22.173 6.55 22.107-3.539 20.229-0.849 47.579 31.104-1.338 46.501 4.047 119.532-0.472 1.616-0.101 12.444-0.799 16.533-0.559 -16.247-55.787 11.274-50.916 2.58-79.354C163.35 136.169 184.674 127.674 171.325 103.155zM120.349 232.486c0.313 3.851 0.855 8.563 1.039 9.658 -14.026 0.059-13.942-0.431-36.432-0.219 0.397-13.065 1.519-40.587-1.77-48.975 -8.064-20.475-33.709-27.085-35.086-49.86l0.195-0.036c5.38 11.757 9.681 16.499 22.217 18.573 -17.408-14.226-13.83-25.25-13.383-42.226 0.265-9.903-1.679-17.482-3.736-25.362 2.437-7.282 3.738-14.154 5.041-22.003 5.299-31.981 23.306-56.507 41.03-39.238 0.001-0.001 0.225-0.316 0.225-0.316 0.096 0.134 0.084 0.114 0.202 0.302 15.169-16.919 29.792-2.734 37.781 17.474 11.073 27.991 1.55 37.627 13.281 55.582 0.56 12.526 1.191 25.365-13.838 43.069 -3.304 3.889-7.355 7.003-11.67 9.727 15.688-1.395 25.436-14.789 30.639-29.654l0.191 0.059C141.093 186.96 112.813 144.06 120.349 232.486z" fill="#4e4341" stroke-width="none" opacity="1"></path><path id="SvgjsPath4960" d="M168.564 241.012c-4.089-0.24-14.917 0.458-16.533 0.559 -7.593 0.47-14.551 0.831-20.979 1.104 0.627-18.603-6.242-38.093 2.549-55.675 4.409-9.624 18.398-19 21.398-31 0.559-2.235 1.938-7.965 2.429-12.944 3.441 21.68-17.092 41.785-12.299 63.68 4.266-14.529 12.416-38.893 17.552-49.096 -0.563 16.096-1.812 20.566-1.289 30.668 4.13-9.095 7.526-16.68 5.584-38.498 0 0 2.598 6.715 4.168 11.848C179.839 190.096 152.317 185.225 168.564 241.012zM161.744 152.235c14.178-34.092-4.985-37.232-10.55-59.281C145.21 69.242 145.199 27.485 124 23c-10.773-2.279-19.332 1.04-24.926 9.434 0.13 0.122 0.26 0.239 0.39 0.366 0.001-0.001 0.225-0.316 0.225-0.316 0.096 0.134 0.084 0.114 0.202 0.302 15.169-16.919 29.792-2.734 37.781 17.474 11.073 27.991 1.55 37.627 13.281 55.582 2.666 23.645-7.074 41.159-25.508 52.796 15.263-7.068 28.199-18.51 30.174-46.749l0.398 0.199C161.471 119.218 164.952 140.731 161.744 152.235zM154.398 45c1.833 21.549 4.026 42.923 16.985 58.268 -0.021-0.038-0.038-0.074-0.059-0.112 0.178-1.207 0.604-4.451 0.76-5.638C166.309 90.678 160.708 78.757 159 66c-2.141-15.982 0.07-34.47-15.9-46C150.849 26.708 154.398 36 154.398 45zM69 18C44 33 50.146 61.473 44.146 84c-3.188 11.97-11.551 22.788-20.646 30.744 -0.609 2.384-1.069 4.813-1.377 7.277C60.299 97.473 45.24 48.478 61.199 30.666c11.568-12.911 25.383-17.769 38.489 1.817C96.415 16.706 79 13 69 18zM82.258 25.4c-7.133 1.456-14.761 9.231-18.923 16.342 -6.467 11.048-7.485 28.27-12.653 46.717 -4.4 15.707-13.998 30.571-33.68 39.249 26.759-5.687 35.423-30.752 36.391-33.667 2.437-7.282 3.738-14.154 5.041-22.003 5.26-31.746 23.042-56.139 40.64-39.604C93.415 26.512 90.127 23.793 82.258 25.4zM68.733 161.296c0.579 0.115 1.161 0.229 1.779 0.332 -17.408-14.226-14.13-25.25-13.683-42.226 0.255-9.563-1.65-17.359-3.626-24.951 -0.523 1.394-1.105 2.744-1.716 4.073C60.569 121.579 41.722 142.818 68.733 161.296zM146.702 161.628c9.171-9.346 13.167-29.969 11.369-43.484 -0.817 4.008-1.474 8.073-2.426 12.056 0.149-0.404 0.296-0.81 0.438-1.217l0.191 0.059c-15.183 57.919-43.463 15.019-35.927 103.445 0.313 3.851 0.855 8.563 1.039 9.658 -14.026 0.059-13.942-0.431-36.432-0.219 0.397-13.065 1.519-40.587-1.77-48.975 -7.75-19.678-44.052-31.323-33.378-62.632 -9.689 13.094-4.59 24.13 1.678 31.309 35.12 44.05 24.852 49.003 26.454 81.047 11.177 0.333 30.093 0.525 48.263-0.105C121.536 179.735 127.328 181.371 146.702 161.628zM39.184 142.011c-1.385-4.846 8.584-15.692 5.366-30.735C43.886 121.43 38.638 129.205 36 138c-3.999 33.884 27.286 39.376 14 74 0-13-2.667-19.437-7.667-31.437C42.333 196.563 49 207 41 223c0 0 2.761-11.765 0.26-17.418C32.879 180.272 39.439 170.276 33 154c-2.838-7.69-8.246-14.15-10.878-27.926 0.677 19.739 10.59 29.425 9.958 46.216 -0.663 12.739-1.207 13.817 1.268 22.173 6.55 22.107-3.539 20.229-0.849 47.579 12.221-0.525 22.025-0.014 33.847 0.527 2.261-24.406 5.03-40.444-7.662-60.172C51.814 171.72 37.453 160.703 39.184 142.011zM45 38c-4.149 20.744-5.556 42.857-18.478 58.357 0.366 3.807 0.713 6.488 0.837 7.762 -0.066 0.136-0.124 0.275-0.188 0.411C51.195 67.57 41.09 47.743 50 28c2-5 6.231-8.566 11-14C52.915 20.828 47 27 45 38zM166.623 102.836C155.162 84.076 155.692 61.634 148 38c-4.507-13.846-24.446-39.649-48.506-6.168 11.159-14.396 23.65-15.006 31.307-10.431 6.19 3.699 10.544 10.145 13.544 17.145 7.068 18.138 5.753 34.787 13.753 52.787 5 12 12.048 22.146 12.416 32.828 -0.332 4.575-3.198 15.689-4.698 19.253 0.479-1.376 6.27-12.165 6.27-18.4C172.085 118.144 170.466 109.127 166.623 102.836zM71.522 9.661c3.306-2.748 25.504-5.422 29.751 11.058C98.289 4.859 78.927 5.073 71.522 9.661zM135.429 8.581c3.49 2.642 2.081 1.447-0.513-0.514 -13.694-8.515-27.51-1.497-33.308 12.366C109.649 3.393 126.768 2.02 135.429 8.581zM147.768 15.763c-17.909-25.073-41.461-16.292-47.154-2.327C108.07-2.146 131.988-5.355 147.768 15.763zM47.118 21.915c-2.079 4.494 4.73-15.523 28.092-20.133 8.363-1.692 19.382-0.871 24.746 6.221C91.351-4.505 59.979-4.11 47.118 21.915zM134.716 12.859c1.24 0.864 2.13 1.626 2.078 1.583 -0.177-0.117-1.063-1.067-2.619-2.098 -11.543-7.674-29.75 1.124-33.899 15.082C105.102 13.747 123.645 5.512 134.716 12.859zM65.39 15.566c-3.443 2.883 4.383-2.277 6.732-2.839 8.25-2.126 24.014-0.522 28.82 11.981C96.429 10.93 77.129 7.13 65.39 15.566z" fill="#3f312e" stroke-width="none" opacity="1"></path><path id="SvgjsPath4961" d="M54.287 8.395c-6.063 5.795-8.245 8.121-12.733 15.896C29.969 42.645 29.465 95.483 30.12 75.647 31.003 46.753 33.226 26.926 54.287 8.395zM40.166 46.282c-1.19 10.81 2.133-9.666 3.979-14.112C51.075 15.805 71.717-1.981 91.025 6.798c3.802 1.736 6.471 3.731 7.692 4.555C71.922-9.195 43.586 15.053 40.166 46.282zM140.025 11.352c4.61 4.55 8.293 8.722 8.248 8.671 -3.867-3.539-21.245-34.352-47.079-3.221C113.365 3.41 126.815-1.016 140.025 11.352zM91.268 18.114c5.95 4.151 11.459 11.672 10.709 10.672 -0.251-0.291-1.608-2.192-3.735-4.794C75.559-3.612 50 28.843 47.748 53.002 51.44 28.64 73.278 5.713 91.268 18.114zM148.446 35.102c0.914 2.425 1.39 3.932 1.306 3.63 -0.112-0.292-0.599-2.129-1.518-4.706 -7.781-22.254-29.125-27.144-48.288-4.222C119.501 8.442 139.361 12.269 148.446 35.102zM170.729 89.177c-0.008-0.391 0.217-2.754 0.27-6.182 0.46-22.099-4.53-58.257-22.219-71.904C171.765 31.294 170.628 90.434 170.729 89.177zM160.594 109.636c1.141 1.432 1.838 2.295 1.702 2.122 -6.983-11.994-4.544 1.486-14.992-43.759C151.208 88.03 150.813 97.418 160.594 109.636zM40.224 110.197c-3.71 3.778-2.039 2.239 0.691-0.536C55.243 92.089 52.19 85.149 56.037 63.719 52.939 77.874 52.532 97.469 40.224 110.197zM80.217 24.943c1.441-0.43 2.318-0.692 2.144-0.644 -4.026 1.411-20.332 4.076-24.18 27.199C61.569 36.735 70.158 28.113 80.217 24.943zM143.451 47.042c2.782 8.476-1.829-8.357-4.675-13.598 -5.338-10.289-12.488-12.038-23.153-11.645C133.024 21.025 137.857 30.72 143.451 47.042zM34.274 152.301c2.071 11.298 11.409 25.639 15.081 38.07 1.789 5.938 1.875 6.194-0.112-1.306 -11.232-35.413-21.715-39.51-10.232-69.374C39.011 119.691 30.189 136.554 34.274 152.301zM148.784 189.284c-0.385 2.617-0.607 4.203-0.555 3.89 9.005-39.146 13.987-26.598 11.758-65.936C160.009 171.216 154.996 151.983 148.784 189.284zM46.041 133.496c-8.804 20.717 5.362 28.95 22.507 53.013 3.892 6.425 2.585 4.246 1.648 2.489 -11.499-21.461-31.094-34.2-23.91-53.677 2.383-6.427 3.979-9.329 3.182-22.331C49.611 121.966 49.23 125.986 46.041 133.496zM52.428 119.592c-0.092 12.744-6.549 21.745 6.856 35.309 4.074 3.177-2.931-3.353-4.056-5.359 -2.187-3.878-3.819-8.571-3.37-13.059 0.683-13.909 1.296-1.389 0.912-29.999C52.413 116.792 52.728 110.031 52.428 119.592zM142.67 147.298c-1.671 2.148-4.705 4.313-5.604 6.149 -0.214 0.387 0.542-0.853 1.744-1.979 17.557-16.844 13.72-27.795 16.996-34.761C152.473 123.786 154.94 131.114 142.67 147.298zM126.529 187.542c-2.762 11.25-1.063 15.187-1.063 15.187 -0.185-1-0.322-1.582-0.322-3.37 2.057-31.334 25.247-25.986 31.597-60.146C151.157 167.077 131.887 167.036 126.529 187.542z" fill="#5d5857" stroke-width="none" opacity="1"></path><path id="SvgjsPath4962" d="M171.429 103.136c12.069-85.836-28.95-117.955-66.649-108.561 -63.629-15.205-85.202 40.694-77.51 109.5 -2.854 5.875-4.629 12.232-5.31 18.601 -2.671 2.329-6.03 4.794-7.03 5.43 2.281-0.256 4.492-0.737 6.75-1.4 -0.454 12.987 3.396 20.927 6.94 29.32 6.294 14.887 0.154 21.277 3.39 34.07 1.24 4.85 3.11 9.63 3.55 14.64 0.946 10.766-5.545 16.426-3.15 37.41 0.08 0 0.15-0.01 0.23-0.01 24.692-0.967 13.033-0.165 29.72 0.439 62.103 2.413 88.897-1.46 106.34-1.46 -12.259-39.767-0.309-49.433 3.61-63.05 3.343-11.656-3.539-17.892-3.11-27.43C170.279 131.121 182.242 124.247 171.429 103.136zM69.579 161.266c-11.588-2.079-16.382-8.37-21.42-19.061 -0.284-5.823 1.921-12.104 2.96-17.87 1.044-5.75 0.401-10.896-0.69-22.729 1.12-2.35 2.09-4.77 2.94-7.24 1.57 6.54 3.01 13.15 3.04 19.83C56.463 128.817 50.079 147.932 69.579 161.266zM21.699 126.226c-1.71 0.529-3.46 0.96-5.23 1.27 41.837-27.209 31.729-67.088 39.07-85.77 7.243-18.434 27.63-33.995 44.1-9.15 -0.06 0.08-0.109 0.15-0.16 0.23 -17.355-18.325-36.108 8.93-40.729 31.36 -4.49 21.877-6.914 51.458-35.12 61.41C23.629 125.575 21.699 126.205 21.699 126.226zM32.619 241.855c-0.543-9.458-0.846-11.33 0.73-18.64 1.28-5.961 3.59-12.12 3.23-18.271 -0.39-6.41-3.11-12.39-3.89-18.74 -0.75-6.14 0.5-12.31 0.53-18.46 0.082-12.213-10.172-20.935-9.61-41.63 8.104-2.688 15.358-7.616 20.94-14.84 0.917 21.249-5.573 19.928-6.48 31.84 -1.511 20.052 22.174 35.669 27.74 56.09 1.939 7.062 2.03 35.213 1.99 42.561C42.492 241.322 58.322 240.284 32.619 241.855zM67.999 241.766c1.762-47.609-0.21-49.127-16.54-70.601 -22.601-29.594-7.548-34.703-6.54-50.26 0.21-3.27 0-6.56-0.21-9.84 2.15-2.82 3.97-5.86 5.51-9.05 0.795 13.27 0.928 13.425 0.83 15.92 -0.627 17.156-14.775 28.272 12.29 53.859 21.941 20.76 20.976 18.661 21.51 70.03C79.229 241.865 73.609 241.865 67.999 241.766zM85.059 241.825c0.35-11.354 1.576-40.352-1.78-48.91 -8.071-20.492-33.704-27.098-35.08-49.83 0.323 1 3.402 7.811 6.93 11.45 4.472 4.623 9.446 6.313 15.75 7.25 -17.932-13.084-14.028-28.113-13.65-42.38 0.263-9.843-1.635-17.335-3.74-25.39 4.287-12.413 4.894-24.4 7.4-33.84 5.711-21.558 22.336-43.879 38.589-27.22 0.006-0.017 0.2-0.286 0.21-0.3 0.008 0.011 0.188 0.291 0.19 0.3 13.404-16.837 29.143-4.305 37.7 17.34 11.029 27.882 1.583 37.684 13.29 55.6 0.491 11.79 1.402 25.005-13.83 42.95 -3.366 3.96-8.398 7.835-12 9.92 15.66-0.846 25.939-14.893 31.14-29.75 -15.514 57.917-43.439 15.318-35.93 103.479 0.343 4.205 0.894 8.792 1.021 9.55C109.791 242.117 111.782 241.719 85.059 241.825zM163.389 147.476c7.729-35.545-14.471-31.226-17.31-59.59 -0.996-10.411-0.63-29.001-12.86-48.65 -8.754-14.108-21.634-20.468-33.27-6.5 -0.04-0.08-0.09-0.16-0.141-0.24 15.769-21.402 42.415-19.527 49.341 26.27 4.381 29.034 5.438 27.162 15.17 47.38C168.679 115.133 174.634 126.9 163.389 147.476zM151.329 106.596c2.058 3.087 4.326 5.995 6.521 9.05 0 16.35-13.219 39.914-30.75 42.47 2.52-1.54 4.96-3.229 7.09-5.25C150.003 137.833 152.699 124.613 151.329 106.596zM167.939 156.695c1.3 5.5 3.699 10.57 3.729 16.32 -1.432 16.422-17.601 23.629-3.31 67.67 -9.831-0.523-19.654 0.533-37.141 1.149 -0.459-25.169-2.177-31.864-0.949-42.59 2.851-25.063 24.016-23.109 27.159-56.189 -4.017 34.862-28.503 30.377-29.029 61.109 -0.033 2.001 2.4 37.353 2.43 37.681 -2.771 0.093-6.599 0.199-9.37 0.199 -7.985-81.762 13.702-65.904 27.891-91.109 4.94-8.745 8.701-22.552 8.76-34.92 8.21 11.655 7.685 17.531 4.77 32.819 5.384-8.491 9.791-22.53 6.51-32.88 -1.094-4.394-4.797-11.869-6.25-14.88 -10.84-22.439-8.965-23.64-13-45.33 -7.404-40.292-33.264-47.161-50.39-23.33 -17.552-27.954-45.346-8.197-49.08 25.4 -1.354 12.346-0.255 38.468-26.65 63.02 1.906-14.99 8.729-22.372 13.75-34.22 12.649-29.735 1.814-50.492 18.65-67.33C38.122 37.494 51 59.408 34.099 91.476c-1.94 3.67-4.1 7.24-6 10.939 -5.854-64.179 16.384-121.011 75.59-107.03 40.783-10.329 64.18 25.442 67.6 67.79 1.471 18.212-0.248 34.59-0.54 38.77 -2.87-4.89-6.31-9.47-8.34-14.81 -11.876-31.337-1.556-52.06-19.32-67.28 18.119 16.345 6.485 41.9 19.79 71.61 2.613 4.897 5.803 9.391 8.16 14.36C180.63 126.046 163.44 137.618 167.939 156.695z" fill="#201311" stroke-width="none" opacity="1"></path></g><g id="svga-group-glasses-single-move" transform="matrix(1,0,0,1,0,0)"><g id="svga-group-glasses-single" transform="matrix(1,0,0,1,0,0)"><path id="SvgjsPath4706" d="M150.82 85.61c0.02 6.14-1.89 12.16-4.01 14.71 -2.43 2.93-8.12 4.76-14.84 4.76 -5.93 0-11.52-1.45-14.96-3.87 -5.16-3.64-9.63-11.19-11.25-18.06C115.62 75.7 141.43 75.3 150.82 85.61zM49.18 85.61c-0.02 6.14 1.89 12.16 4.01 14.71 2.43 2.93 8.12 4.76 14.84 4.76 5.93 0 11.52-1.45 14.96-3.87 5.16-3.64 9.63-11.19 11.25-18.06C84.38 75.7 58.57 75.3 49.18 85.61z" fill="#ffffff" stroke-width="none" opacity="0.2"></path><path id="SvgjsPath4707" d="M105.77 83.14c-0.57-2.43-0.79-4.79-0.55-6.85 0.44-3.77 2.25-6.32 5.37-7.56 1.76-0.7 6.71-1.17 12.31-1.17 4.01 0 17.49 0.3 22.45 4.22 2.98 2.35 4.82 6.18 5.33 11.07 0.1 0.91 0.14 1.83 0.14 2.75C141.43 75.3 115.62 75.7 105.77 83.14zM94.79 76.3c-0.44-3.77-2.25-6.32-5.37-7.56 -1.76-0.7-6.71-1.17-12.31-1.17 -4.01 0-17.49 0.3-22.45 4.22 -2.98 2.35-4.82 6.18-5.33 11.07 -0.1 0.91-0.14 1.83-0.14 2.75 9.39-10.31 35.2-9.91 45.06-2.47C94.81 80.71 95.03 78.36 94.79 76.3z" fill="#ffffff" stroke-width="none" opacity="0.4"></path><path id="SvgjsPath4708" d="M154.89 79.22c-0.1-0.36-0.75-0.8-1.44-1.05 -0.47-0.17-1.99-0.27-2.92-0.32 -4.25-11.92-16.29-11.04-42.6-11.11 -0.72-1-0.42-0.72-7.93-0.74 -7.52 0.01-7.21-0.26-7.93 0.74 -26.31 0.07-38.35-0.81-42.6 11.11 -0.93 0.05-2.45 0.15-2.92 0.32 -0.69 0.25-1.34 0.69-1.44 1.05 -0.1 0.36-0.14 1.82-0.06 2.1 0.08 0.28 0.61 0.93 0.61 0.93s0.04-0.04 0.1-0.1c0.17 0.32 0.73 0.91 2.54 1.03 -0.77 7.48 1.61 14.5 4.24 17.67 5.73 6.92 23.35 6.43 30.95 1.07 7.2-5.07 12.9-16.95 12.21-25.22 1.81-1.21 6.94-1.21 8.62 0 -0.69 8.27 5.01 20.15 12.21 25.22 7.6 5.36 25.22 5.85 30.95-1.07 2.63-3.17 5.01-10.19 4.24-17.67 1.81-0.12 2.37-0.71 2.54-1.03 0.07 0.06 0.1 0.1 0.1 0.1s0.53-0.65 0.61-0.93C155.04 81.04 155 79.58 154.89 79.22zM82.69 100.8c-7.64 5.39-24.38 4.92-29.12-0.8 -3.92-4.72-6.89-21.27 1.39-27.82 6.53-5.16 30.21-4.6 34.26-2.98 2.94 1.17 4.64 3.58 5.06 7.15C95.2 84.08 89.56 95.96 82.69 100.8zM95.4 74.74c-0.49-2.14-1.5-3.87-2.95-5.15 0.14-0.53 1.33-1.26 1.56-1.76 2.26-0.01 9.72-0.01 11.98 0 0.23 0.5 1.42 1.23 1.56 1.76 -1.45 1.28-2.46 3.01-2.95 5.15C101.64 73.83 98.23 73.87 95.4 74.74zM146.43 100c-4.74 5.71-21.48 6.18-29.12 0.8 -6.87-4.84-12.5-16.72-11.59-24.44 0.42-3.58 2.12-5.98 5.06-7.15 4.06-1.62 27.73-2.18 34.26 2.98C153.32 78.72 150.35 95.28 146.43 100z" fill="#312c22" stroke-width="none" opacity="1" stroke="none"></path></g></g></g></g></g><rect id="svga-credit-rect" width="200" height="15" x="0" y="185" fill="#ecf0f1" opacity="0.5" style="display: none;"></rect><text id="svga-credit-text" font-family="Avenir Next, Roboto, Helvetica, Arial, sans-serif" font-size="10px" text-anchor="start" font-weight="400" size="10px" anchor="start" weight="400" fill="#333333" x="33.3125" y="182.609375" style="display: none;"><tspan id="SvgjsTspan3126" dy="13" x="33.3125">Created on AvatarMaker.com</tspan></text></g></svg>