<svg width="44" height="41" viewBox="0 0 44 41" fill="none" xmlns="http://www.w3.org/2000/svg">
<path d="M9.72656 40.7344C9.10156 40.7344 8.42188 40.6797 7.6875 40.5703C6.96875 40.4766 6.24219 40.2656 5.50781 39.9375C4.78906 39.6094 4.09375 39.1484 3.42188 38.5547C2.76562 37.9453 2.17969 37.1484 1.66406 36.1641C1.16406 35.1797 0.757812 33.9688 0.445312 32.5312C0.148438 31.0781 0 29.3516 0 27.3516V13.1719C0 11.1562 0.15625 9.4375 0.46875 8.01562C0.78125 6.57812 1.19531 5.375 1.71094 4.40625C2.22656 3.42188 2.82031 2.64062 3.49219 2.0625C4.16406 1.48438 4.85938 1.04688 5.57812 0.75C6.29688 0.4375 7.00781 0.234375 7.71094 0.140625C8.42969 0.046875 9.09375 0 9.70312 0C11.2969 0 12.625 0.226562 13.6875 0.679688C14.7656 1.11719 15.625 1.72656 16.2656 2.50781C16.9219 3.27344 17.3828 4.17188 17.6484 5.20312C17.9297 6.23438 18.0703 7.32812 18.0703 8.48438C18.0703 9.34375 18.0234 10.1406 17.9297 10.875C17.8516 11.5938 17.7266 12.3906 17.5547 13.2656H12.6328V11.2266C12.6328 9.02344 12.3906 7.375 11.9062 6.28125C11.4219 5.1875 10.7109 4.64062 9.77344 4.64062C9.21094 4.64062 8.71875 4.75 8.29688 4.96875C7.875 5.1875 7.52344 5.5625 7.24219 6.09375C6.96094 6.60938 6.74219 7.29688 6.58594 8.15625C6.44531 9.01562 6.375 10.0859 6.375 11.3672V29.6484C6.375 30.8984 6.42969 31.9375 6.53906 32.7656C6.66406 33.5938 6.85938 34.2578 7.125 34.7578C7.39062 35.2578 7.73438 35.6172 8.15625 35.8359C8.59375 36.0391 9.11719 36.1406 9.72656 36.1406C10.1172 36.1406 10.4922 36.0547 10.8516 35.8828C11.2109 35.6953 11.5234 35.4141 11.7891 35.0391C12.0703 34.6484 12.2891 34.1641 12.4453 33.5859C12.6172 32.9922 12.7031 32.2969 12.7031 31.5V27.5859H18.2578V31.2891C18.2578 34.5078 17.5234 36.8828 16.0547 38.4141C14.5859 39.9453 12.4766 40.7188 9.72656 40.7344Z" fill="#82C3C6"/>
<path d="M22.4625 0.351562H28.6734L33.0797 32.0625H33.3375L37.7672 0.351562H43.9547L36.6656 40.3828H29.7281L22.4625 0.351562Z" fill="#82C3C6"/>
</svg>
