<svg height="512pt" viewBox="-15 0 512 512" width="512pt" xmlns="http://www.w3.org/2000/svg"><path d="m466.9375 210.574219h-82.339844v83.058593l-115.644531 80.164063c-4.890625-10.457031-15.503906-17.707031-27.8125-17.707031-12.304687 0-22.917969 7.25-27.808594 17.707031l-115.644531-80.164063v-83.058593h-82.339844c-8.476562 0-15.347656 6.871093-15.347656 15.34375v270.738281c0 8.472656 6.871094 15.34375 15.347656 15.34375h451.589844c8.476562 0 15.34375-6.871094 15.34375-15.34375v-270.738281c0-8.472657-6.867188-15.34375-15.34375-15.34375zm0 0" fill="#c46f5f"/><path d="m30.691406 496.65625v-270.738281c0-8.472657 6.871094-15.34375 15.34375-15.34375h-30.6875c-8.476562 0-15.347656 6.871093-15.347656 15.34375v270.738281c0 8.472656 6.871094 15.34375 15.347656 15.34375h30.6875c-8.472656 0-15.34375-6.871094-15.34375-15.34375zm0 0" fill="#b45f4a"/><path d="m213.332031 373.796875c11.03125-23.582031 44.601563-23.558594 55.621094 0l115.644531-80.164063c0-8.726562 0-257.828124 0-278.023437 0-8.621094-6.988281-15.609375-15.609375-15.609375h-191.980469l-79.320312 79.324219v214.308593zm0 0" fill="#fff6e9"/><path d="m128.59375 48.414062-30.90625 30.910157v214.308593l30.90625 21.421876zm0 0" fill="#f9e4c7"/><path d="m271.832031 386.78125c0 16.949219-13.738281 30.691406-30.691406 30.691406-16.949219 0-30.691406-13.742187-30.691406-30.691406s13.742187-30.691406 30.691406-30.691406c16.953125 0 30.691406 13.742187 30.691406 30.691406zm0 0" fill="#ff6b6b"/><path d="m241.140625 386.78125c0-11.359375 6.175781-21.265625 15.347656-26.574219-4.515625-2.613281-9.753906-4.117187-15.347656-4.117187-16.949219 0-30.691406 13.742187-30.691406 30.691406s13.742187 30.691406 30.691406 30.691406c5.59375 0 10.832031-1.503906 15.347656-4.117187-9.171875-5.308594-15.347656-15.214844-15.347656-26.574219zm0 0" fill="#ee5253"/><path d="m384.597656 293.632812 97.683594-67.714843c0-8.472657-6.867188-15.34375-15.34375-15.34375h-82.339844zm0 0" fill="#b45f4a"/><path d="m415.507812 210.574219h-30.910156v83.058593l30.910156-21.425781zm0 0" fill="#a85140"/><path d="m97.683594 293.632812v-83.058593h-82.335938c-8.476562 0-15.347656 6.871093-15.347656 15.34375zm0 0" fill="#b45f4a"/><path d="m30.691406 247.191406v-21.273437c0-8.472657 6.871094-15.34375 15.34375-15.34375h-30.6875c-8.472656 0-15.347656 6.867187-15.347656 15.34375zm0 0" fill="#a85140"/><path d="m97.683594 79.324219h63.714844c8.621093 0 15.609374-6.988281 15.609374-15.613281v-63.710938zm0 0" fill="#f9e4c7"/><path d="m177.007812 0-79.324218 79.324219h30.910156l48.414062-48.417969zm0 0" fill="#f2d5b1"/><g fill="#f9e4c7"><path d="m322.726562 242.230469h-163.171874c-4.265626 0-7.726563-3.460938-7.726563-7.726563 0-4.269531 3.460937-7.726562 7.726563-7.726562h163.171874c4.269532 0 7.726563 3.457031 7.726563 7.726562 0 4.265625-3.457031 7.726563-7.726563 7.726563zm0 0"/><path d="m322.726562 281.183594h-163.171874c-4.265626 0-7.726563-3.457032-7.726563-7.726563s3.460937-7.726562 7.726563-7.726562h163.171874c4.269532 0 7.726563 3.457031 7.726563 7.726562s-3.457031 7.726563-7.726563 7.726563zm0 0"/><path d="m322.726562 320.136719h-163.171874c-4.265626 0-7.726563-3.457031-7.726563-7.726563 0-4.269531 3.460937-7.726562 7.726563-7.726562h163.171874c4.269532 0 7.726563 3.457031 7.726563 7.726562 0 4.269532-3.457031 7.726563-7.726563 7.726563zm0 0"/></g><path d="m205.628906 122.039062c-7.140625 0-11.277344 4.007813-11.277344 12.527344v33.195313c0 8.519531 4.136719 12.527343 11.402344 12.527343 10.019532 0 10.648438-7.640624 11.023438-12.527343.375-4.632813 4.636718-5.886719 9.644531-5.886719 6.765625 0 9.898437 1.753906 9.898437 9.269531 0 16.664063-13.53125 26.183594-31.445312 26.183594-16.410156 0-30.066406-8.019531-30.066406-29.566406v-33.195313c0-21.546875 13.65625-29.566406 30.066406-29.566406 17.914062 0 31.445312 9.019531 31.445312 24.929688 0 7.519531-3.132812 9.269531-9.769531 9.269531-5.265625 0-9.523437-1.375-9.773437-5.886719-.125-3.257812-.5-11.273438-11.148438-11.273438zm0 0" fill="#576574"/><path d="m240.199219 114.398438c-2.039063-8.203126 16.542969-13.207032 18.667969-5.765626l17.539062 64.269532 17.414062-64.269532c2.128907-7.453124 20.707032-2.429687 18.664063 5.765626l-23.300781 76.414062c-2.734375 8.703125-22.820313 8.710938-25.554688 0zm0 0" fill="#576574"/></svg>