<svg height="500pt" viewBox="0 -16 500.00058 500" width="500pt" xmlns="http://www.w3.org/2000/svg"><path d="m250.03125 468c-71.824219 0-143.652344 0-215.480469 0-20.570312 0-34.015625-12.898438-34.363281-33.402344-.2304688-14.628906-.34375-29.140625.230469-43.765625.691406-17.277343 9.078125-30.523437 24.019531-38.703125 49.070312-26.835937 98.375-53.09375 147.445312-79.816406 3.566407-1.957031 5.746094-.113281 8.390626 1.265625 41.945312 22 84.699218 23.84375 128.371093 5.53125 1.261719-.460937 2.640625-.808594 3.675781-1.730469 9.082032-7.714844 17.238282-4.605468 26.664063.578125 44.015625 24.300781 88.375 48.144531 132.734375 71.871094 19.195312 10.25 28.617188 25.683594 28.273438 47.453125-.230469 12.324219 0 24.53125 0 36.855469-.117188 20.386719-13.675782 33.863281-33.902344 33.863281-72.058594 0-144.117188 0-216.058594 0zm0 0" fill="#dfe8f4"/><g fill="#623add"><path d="m129.601562 368.222656c6.605469 0 11.679688 1.164063 15.21875 3.492188 3.539063 2.328125 5.308594 6.140625 5.308594 11.4375 0 5.34375-1.789062 9.199218-5.371094 11.570312-3.582031 2.371094-8.699218 3.554688-15.347656 3.554688h-3.132812v14.871094h-9.980469v-43.773438c2.175781-.429688 4.476563-.726562 6.910156-.898438 2.429688-.171874 4.558594-.253906 6.394531-.253906zm.640626 8.523438c-.726563 0-1.441407.019531-2.144532.0625-.703125.042968-1.308594.085937-1.820312.128906v12.816406h3.132812c3.453125 0 6.054688-.46875 7.800782-1.410156 1.75-.9375 2.625-2.691406 2.625-5.253906 0-1.238282-.226563-2.265625-.671876-3.078125-.449218-.808594-1.089843-1.460938-1.917968-1.953125-.832032-.492188-1.84375-.835938-3.039063-1.023438-1.195312-.195312-2.519531-.289062-3.964843-.289062zm0 0"/><path d="m170.464844 368.222656c6.652344 0 11.746094 1.183594 15.285156 3.554688 3.535156 2.371094 5.304688 6.058594 5.304688 11.054687 0 3.121094-.714844 5.652344-2.140626 7.597657-1.429687 1.945312-3.484374 3.46875-6.171874 4.582031.894531 1.113281 1.832031 2.382812 2.8125 3.8125.980468 1.433593 1.953124 2.929687 2.910156 4.488281.960937 1.558594 1.886718 3.183594 2.78125 4.871094.898437 1.6875 1.726562 3.339844 2.496094 4.964844h-11.152344c-.8125-1.449219-1.636719-2.925782-2.472656-4.421876-.832032-1.496093-1.691407-2.949218-2.566407-4.359374-.878906-1.410157-1.746093-2.742188-2.601562-4.007813-.855469-1.257813-1.710938-2.402344-2.566407-3.425781h-4.925781v16.214844h-9.976562v-43.773438c2.175781-.429688 4.425781-.726562 6.746093-.898438 2.324219-.171874 4.402344-.253906 6.238282-.253906zm.574218 8.523438c-.726562 0-1.375.019531-1.949218.0625-.578125.042968-1.121094.085937-1.632813.128906v12.046875h2.816407c3.75 0 6.433593-.46875 8.054687-1.410156 1.621094-.9375 2.433594-2.539063 2.433594-4.804688 0-2.179687-.824219-3.730469-2.464844-4.648437-1.640625-.917969-4.058594-1.375-7.257813-1.375zm0 0"/><path d="m200.136719 368.734375h9.976562v44.414063h-9.976562zm0 0"/><path d="m233.589844 413.148438c-1.761719-3.730469-3.5-7.601563-5.21875-11.613282-1.714844-4.011718-3.34375-7.980468-4.890625-11.910156-1.542969-3.925781-2.964844-7.683594-4.257813-11.277344-1.292968-3.589844-2.414062-6.792968-3.355468-9.613281h11c.828124 2.570313 1.75 5.339844 2.765624 8.304687 1.015626 2.964844 2.050782 5.921876 3.105469 8.863282 1.054688 2.945312 2.0625 5.769531 3.027344 8.46875.964844 2.695312 1.890625 5.023437 2.773437 6.988281.832032-1.949219 1.742188-4.273437 2.730469-6.972656.984375-2.695313 2.007813-5.515625 3.058594-8.460938 1.054687-2.945312 2.089844-5.902343 3.101563-8.863281 1.015624-2.964844 1.941406-5.738281 2.773437-8.328125h10.621094c-.992188 2.832031-2.136719 6.042969-3.425781 9.625-1.292969 3.585937-2.703126 7.34375-4.238282 11.273437-1.535156 3.929688-3.15625 7.90625-4.859375 11.921876-1.703125 4.015624-3.4375 7.882812-5.191406 11.59375zm0 0"/></g><path d="m292.089844 413.148438c-.492188-1.542969-1.023438-3.128907-1.589844-4.753907s-1.132812-3.246093-1.695312-4.859375h-17.308594c-.5625 1.621094-1.121094 3.242188-1.683594 4.875-.5625 1.628906-1.085938 3.207032-1.570312 4.738282h-10.359376c1.667969-4.785157 3.25-9.207032 4.746094-13.265626 1.496094-4.058593 2.960938-7.882812 4.394532-11.472656 1.433593-3.589844 2.84375-6.996094 4.234374-10.222656 1.386719-3.226562 2.832032-6.375 4.328126-9.453125h9.457031c1.457031 3.078125 2.890625 6.230469 4.304687 9.453125 1.414063 3.226562 2.835938 6.632812 4.273438 10.222656 1.433594 3.589844 2.898437 7.414063 4.398437 11.472656 1.5 4.058594 3.085938 8.480469 4.753907 13.265626zm-11.984375-34.351563c-.222657.644531-.550781 1.519531-.976563 2.632813-.429687 1.109374-.917968 2.390624-1.464844 3.847656-.546874 1.453125-1.160156 3.058594-1.835937 4.804687-.675781 1.75-1.367187 3.585938-2.0625 5.503907h12.671875c-.679688-1.921876-1.335938-3.765626-1.972656-5.519532-.632813-1.753906-1.238282-3.359375-1.808594-4.816406-.574219-1.453125-1.074219-2.734375-1.507812-3.84375-.429688-1.109375-.777344-1.980469-1.042969-2.609375zm0 0" fill="#4d28a8"/><path d="m327.074219 414.046875c-7.203125 0-12.691407-2.007813-16.464844-6.027344-3.773437-4.015625-5.660156-9.71875-5.660156-17.109375 0-3.675781.574219-6.957031 1.726562-9.839844 1.152344-2.882812 2.726563-5.320312 4.730469-7.308593 2.003906-1.984375 4.390625-3.492188 7.164062-4.515625 2.769532-1.027344 5.777344-1.539063 9.015626-1.539063 1.875 0 3.582031.140625 5.117187.417969s2.878906.597656 4.027344.960938c1.152343.363281 2.113281.738281 2.878906 1.121093.765625.382813 1.320313.683594 1.660156.898438l-2.875 8.074219c-1.367187-.726563-2.953125-1.34375-4.765625-1.859376-1.8125-.511718-3.867187-.769531-6.171875-.769531-1.535156 0-3.035156.257813-4.507812.769531-1.472657.515626-2.773438 1.335938-3.902344 2.46875-1.128906 1.132813-2.035156 2.59375-2.714844 4.390626-.683593 1.792968-1.023437 3.972656-1.023437 6.535156 0 2.050781.222656 3.964844.671875 5.738281.445312 1.773437 1.171875 3.300781 2.171875 4.582031 1.003906 1.28125 2.3125 2.296875 3.933594 3.042969 1.621093.75 3.582031 1.125 5.882812 1.125 1.449219 0 2.75-.085937 3.898438-.257813 1.152343-.171874 2.175781-.375 3.070312-.609374.898438-.234376 1.683594-.5 2.367188-.800782.683593-.300781 1.300781-.578125 1.855468-.832031l2.75 8.007813c-1.410156.855468-3.390625 1.625-5.949218 2.308593-2.554688.683594-5.519532 1.027344-8.886719 1.027344zm0 0" fill="#4d28a8"/><path d="m366.070312 386.949219c1.796876-3.023438 3.5-6.050781 5.125-9.074219 1.621094-3.027344 3.113282-6.074219 4.480469-9.140625h11c-2.429687 4.785156-4.945312 9.421875-7.546875 13.90625-2.601562 4.488281-5.351562 8.996094-8.25 13.523437v16.984376h-9.976562v-16.855469c-2.898438-4.527344-5.65625-9.058594-8.28125-13.585938-2.621094-4.53125-5.148438-9.1875-7.578125-13.972656h11.578125c1.359375 3.066406 2.828125 6.117187 4.40625 9.140625 1.574218 3.023438 3.253906 6.050781 5.042968 9.074219zm0 0" fill="#4d28a8"/><path d="m319.046875 78h-139.960937c-12.289063 0-22.085938 9.796875-22.085938 22.113281v97.921875c0 12.316406 9.925781 22.308594 22.214844 22.308594l70.820312-.039062 67.722656-.039063c12.289063 0 22.242188-9.992187 22.242188-22.308594v-97.949219c0-11.835937-9.304688-22.007812-20.953125-22.007812zm0 0" fill="#ffbb1b"/><path d="m181.433594 77.714844h-2.347656c-12.289063 0-22.257813 10.019531-22.230469 22.335937v97.921875c0 12.316406 9.996093 22.308594 22.285156 22.308594l70.859375-.039062v-142.527344zm0 0" fill="#ffde93"/><path d="m302.421875 66.457031c-3.394531 0-6.148437-2.757812-6.148437-6.15625 0-26.460937-21.476563-47.984375-47.875-47.984375-26.398438 0-47.875 21.523438-47.875 47.984375 0 3.398438-2.753907 6.15625-6.148438 6.15625s-6.144531-2.757812-6.144531-6.15625c0-33.25 26.992187-60.300781 60.171875-60.300781 33.175781 0 60.167968 27.050781 60.167968 60.300781 0 3.398438-2.753906 6.15625-6.148437 6.15625zm0 0" fill="#4d28a8"/></svg>