<svg id="Layer_1" enable-background="new 0 0 468 468" height="512" viewBox="0 0 468 468" width="512" xmlns="http://www.w3.org/2000/svg"><g><g><path id="XMLID_290_" d="m18 108.639v278.687c0 11.856 9.623 21.468 21.493 21.468h389.015c11.87 0 21.493-9.611 21.493-21.468v-278.687z" fill="#e3edf0"/><path id="XMLID_291_" d="m450 21.468c0-11.856-9.623-21.468-21.493-21.468h-389.014c-11.87 0-21.493 9.612-21.493 21.468v87.171h432z" fill="#4c97e3"/></g><g><path id="XMLID_292_" d="m244.056 464.984c-6.354 3.79-14.199 4.006-20.8.663-26.042-13.19-90.119-57.395-87.393-172.177 23.696-4.166 42.532-23.332 42.427-48.026h111.459c-.064 24.692 18.701 43.877 42.428 48.026 1.987 107.165-62.718 156.362-88.121 171.514z" fill="#67c7a5"/><path id="XMLID_293_" d="m205.543 388.785-29.378-32.584 23.767-21.428 18.254 20.246 51.162-49.739 22.306 22.944-63.074 61.319c-2.992 2.908-14.33 8.957-23.037-.758z" fill="#fff"/></g><g fill="#fff"><path id="XMLID_294_" d="m59.194 37.927h37.579v32h-37.579z"/><path id="XMLID_295_" d="m123.672 37.927h37.579v32h-37.579z"/></g></g></svg>